<svg width="90" height="51" xmlns="http://www.w3.org/2000/svg" xmlns:xlink="http://www.w3.org/1999/xlink"><use xlink:href="#a" fill="#9A9DA0"/><use xlink:href="#b" transform="translate(23.06)" fill="#9A9DA0"/><use xlink:href="#c" transform="translate(47.64)" fill="#9A9DA0"/><use xlink:href="#d" transform="translate(0 11.6)" fill="#9A9DA0"/><use xlink:href="#e" transform="translate(34.63 .03)" fill="#9A9DA0"/><use xlink:href="#f" transform="translate(73.46 17.86)" fill="#BE3021"/><use xlink:href="#g" transform="translate(60.51 .09)" fill="#9A9DA0"/><use xlink:href="#h" transform="translate(.22 29.25)" fill="#9A9DA0"/><use xlink:href="#i" transform="translate(12.18 29.21)" fill="#9A9DA0"/><use xlink:href="#j" transform="translate(26.35 28.93)" fill="#9A9DA0"/><use xlink:href="#k" transform="translate(39.15 29.21)" fill="#9A9DA0"/><use xlink:href="#l" transform="translate(53.63 29.21)" fill="#9A9DA0"/><use xlink:href="#m" transform="translate(65.17 29.22)" fill="#9A9DA0"/><use xlink:href="#n" transform="translate(78.45 28.95)" fill="#9A9DA0"/><g transform="translate(2056 5308)"><use xlink:href="#o" transform="translate(-2056 -5266)" fill="#9A9DA0"/></g><defs><path id="a" fill-rule="evenodd" d="M0 9.24V0h11.71l9.62 15.9c0 .44.49.65.8.77h3.64v9.64H14.08L4.13 9.98c-.25-.5-.46-.64-.7-.69L0 9.24Z"/><path id="b" fill-rule="evenodd" d="M0 0v14.7h2.43c.16-3.76.09-11.12 7.61-12.14V0H0Z"/><path id="c" fill-rule="evenodd" d="M10.07 0v13.6H7.63c-.16-3.71 0-10-7.63-11.02V0h10.07Z"/><path id="d" fill-rule="evenodd" d="M0 14.7V0h2.46c.16 3.7 0 11.12 7.61 12.13v2.48L0 14.7Z"/><path id="e" fill-rule="evenodd" d="M11.5 0h-.07v26.28H.1V0H0h11.5Z"/><path id="f" fill-rule="evenodd" d="M16.1 8.5H0V6.43C4.4 6.3 11.9 6.35 13.05 0h3.04v8.5h.02Z"/><path id="g" fill-rule="evenodd" d="M11.48 0h-.06v26.27H.09V0H0h11.48Z"/><path id="h" fill-rule="evenodd" d="M6.54 6.59h-2.8v2.75h2.51c.38 0 .57.13.57.37v.42c0 .27-.19.42-.55.42H.57c-.4 0-.57-.13-.57-.4v-.4c0-.27.18-.4.54-.4H2.1V1.2H.63C.22 1.21.01 1.1.01.87V.4C.01.14.2 0 .6 0h5.95c.7 0 1.4.13 2.03.4.66.26 1.23.65 1.65 1.16a2.7 2.7 0 0 1 0 3.37c-.4.52-.97.95-1.63 1.24-.63.27-1.33.4-2.05.42Zm-.08-1.24a2.7 2.7 0 0 0 2.28-1.27 1.7 1.7 0 0 0 0-1.58 2 2 0 0 0-.56-.66c-.22-.2-.48-.36-.78-.47-.3-.1-.62-.16-.94-.16H3.75v4.14h2.7Z"/><path id="i" fill-rule="evenodd" d="M6.38 1.25 4.33 6H8.6L6.4 1.25ZM3.92 7.2l-.95 2.17h1.55c.44 0 .68.13.68.4v.35c0 .3-.24.46-.68.46H.6c-.39 0-.59-.15-.59-.46v-.35c0-.27.2-.4.59-.4h.7l3.54-8.12H2.9c-.48 0-.72-.14-.72-.45V.44c0-.28.24-.44.72-.44h4.17c.34 0 .6.21.75.63l4.16 8.65h.57c.33 0 .5.14.5.4v.38c0 .06 0 .11-.02.17a.38.38 0 0 1-.1.15.47.47 0 0 1-.18.09.53.53 0 0 1-.2.02h-4c-.37-.17-.53-.3-.53-.43v-.33c0-.31.2-.45.56-.45h1.57L9.12 7.12l-5.2.08Z"/><path id="j" fill-rule="evenodd" d="M9.53 3.97c-.53 0-.77-.27-.77-.86 0-.25-.07-.5-.2-.73A1.8 1.8 0 0 0 8 1.8c-.6-.4-1.38-.6-2.15-.55a3.97 3.97 0 0 0-2.17.58 3.8 3.8 0 0 0-1.36 1.6c-.3.72-.45 1.48-.43 2.25 0 .71.18 1.42.53 2.07A4.08 4.08 0 0 0 6 9.9 6.29 6.29 0 0 0 9.4 8.75c.21-.12.46-.19.72-.19.45 0 .67.14.69.45 0 .25 0 .37-.12.4a5 5 0 0 1-2.07 1.24c-.88.3-1.82.45-2.78.46a6.4 6.4 0 0 1-3.09-.73 4.78 4.78 0 0 1-2-2A5.4 5.4 0 0 1 0 5.58c0-.95.25-1.89.72-2.75A5.26 5.26 0 0 1 2.75.79C3.68.26 4.77 0 5.9 0c.52 0 1.04.04 1.56.1.49.07.95.23 1.35.47h.09c0-.06.02-.11.05-.16a.53.53 0 0 1 .3-.2.59.59 0 0 1 .2-.02h.46c.4 0 .6.2.6.6v2.84c0 .28-.2.39-.6.39h-.46l.1-.05Z"/><path id="k" fill-rule="evenodd" d="M9.48 10.58c-.32 0-.53-.18-.65-.57L7.37 7.8a8.23 8.23 0 0 0-1.28-1.53c-.39-.34-.9-.56-1.46-.62l-1.14.98v2.75h1.29c.36 0 .52.14.52.45v.33c0 .28-.16.43-.48.43H.55c-.37 0-.52-.15-.52-.42v-.34c0-.3.15-.45.5-.45h1.32V1.25H.53C.17 1.25 0 1.12 0 .81V.45A.34.34 0 0 1 .02.27.4.4 0 0 1 .14.12a.49.49 0 0 1 .18-.1.55.55 0 0 1 .21-.01h4.25c.07-.01.14 0 .21.01.07.02.13.05.18.1.05.04.1.1.11.15.03.06.03.12.02.18v.33c0 .31-.16.45-.5.45H3.5v3.7l4.4-3.7h-.8c-.36 0-.55-.14-.55-.45V.45c0-.06 0-.13.03-.18A.41.41 0 0 1 6.7.1a.5.5 0 0 1 .19-.1.57.57 0 0 1 .22 0h3.52c.07-.01.15 0 .21.02a.5.5 0 0 1 .18.1c.05.04.1.09.11.14.03.06.04.12.03.18v.33c.01.06 0 .13-.02.18a.4.4 0 0 1-.11.16.49.49 0 0 1-.18.1.55.55 0 0 1-.22 0h-.68l-4.12 3.4c.52.08 1 .3 1.36.61.45.33.82.72 1.1 1.15l2 2.97h.68c.37 0 .56.13.56.44v.34c0 .05 0 .11-.03.17a.4.4 0 0 1-.11.15.5.5 0 0 1-.18.1.55.55 0 0 1-.21 0l-1.52.03Z"/><path id="l" fill-rule="evenodd" d="M8.3 10.58H.54c-.36 0-.54-.15-.54-.43V9.8c0-.3.18-.44.54-.44h3.1V1.25H.53C.18 1.25 0 1.12 0 .81V.45C0 .39 0 .33.03.27A.4.4 0 0 1 .15.12a.5.5 0 0 1 .18-.1A.57.57 0 0 1 .54 0H8.3c.07 0 .15 0 .21.03a.5.5 0 0 1 .18.1c.05.03.1.08.11.14.03.06.04.12.03.18v.33c0 .31-.19.45-.56.45H5.2v8.12h3.07c.37 0 .56.13.56.44v.33c0 .06 0 .12-.02.18a.4.4 0 0 1-.12.15.5.5 0 0 1-.18.09.55.55 0 0 1-.2.02v.02Z"/><path id="m" fill-rule="evenodd" d="M.57.01h2.65c.13 0 .25.04.35.1.1.06.19.15.24.25l5.4 7.93V1.24H7.64c-.44 0-.66-.14-.66-.45V.43c0-.27.2-.43.57-.43h3.77c.36 0 .57.14.57.4v.38c0 .3-.2.44-.62.44h-.61v9.25c0 .02 0 .05-.02.08a.2.2 0 0 1-.05.07.24.24 0 0 1-.08.04.27.27 0 0 1-.1.02h-1.2L3.22 2.03v7.34h1.89c.4 0 .57.12.57.37v.38c0 .3-.17.46-.57.46H1.1c-.4 0-.6-.15-.6-.42v-.39c0-.27.2-.4.6-.4h.69V1.24H.6c-.41 0-.6-.14-.6-.45V.43c0-.27.19-.4.57-.4V0Z"/><path id="n" fill-rule="evenodd" d="M8.74 2.72a2.11 2.11 0 0 0-.98-1.03 3.3 3.3 0 0 0-1.74-.48h-.2a4.18 4.18 0 0 0-2.32.6A3.4 3.4 0 0 0 2.2 3.38c-.26.73-.38 1.5-.37 2.26A4.02 4.02 0 0 0 4.68 9.6a5.27 5.27 0 0 0 4.31-.34V7.18h-2.7c-.33 0-.52-.14-.52-.38v-.41c0-.06 0-.12.02-.17.03-.06.06-.1.11-.15a.53.53 0 0 1 .38-.1h4.7c.38 0 .57.15.57.42v.4c0 .25-.19.39-.55.39h-.39v2.99c0 .1-.45.27-1.39.52-.9.24-1.83.36-2.78.36h-.3a7.8 7.8 0 0 1-3.36-.67 4.7 4.7 0 0 1-2.1-1.93 6.21 6.21 0 0 1 0-5.64 5.24 5.24 0 0 1 2-2.04A6 6 0 0 1 5.7 0h.19c.52 0 1.04.04 1.55.14.48.06.95.2 1.36.4 0 0 .1 0 .1-.06 0-.24.21-.36.52-.36h.48c.37 0 .54.19.54.6v2.26c0 .3-.14.46-.5.46H9.4c-.3 0-.54-.25-.7-.73h.04Z"/><path id="o" d="M1.54 7.75a.86.86 0 0 1-.22.2.4.4 0 0 1-.2.04.48.48 0 0 1-.36-.15c-.1-.1-.14-.28-.14-.51v-.68c0-.24.05-.4.14-.51.1-.1.21-.16.37-.16.12 0 .21.03.3.1.07.06.13.16.18.3.04.15.08.25.13.3.1.1.26.2.5.3.24.11.5.17.8.17.44 0 .8-.1 1.1-.32.17-.12.26-.28.26-.47a.54.54 0 0 0-.13-.34.94.94 0 0 0-.43-.28 6.72 6.72 0 0 0-.87-.2c-.55-.1-.96-.22-1.24-.36a1.66 1.66 0 0 1-.91-1.45c0-.48.2-.9.6-1.26.4-.36.92-.54 1.56-.54.26 0 .5.03.72.09.22.05.42.14.6.26.13-.13.26-.2.39-.2.14 0 .26.06.35.16.1.1.15.27.15.51v.75c0 .24-.05.42-.15.52-.09.1-.2.15-.35.15a.5.5 0 0 1-.32-.11c-.08-.06-.13-.17-.17-.33a.92.92 0 0 0-.13-.36c-.1-.12-.24-.23-.43-.31-.19-.09-.4-.13-.65-.13-.36 0-.65.09-.86.26-.2.16-.31.34-.31.52 0 .12.04.24.12.36.1.11.22.2.38.27.11.04.43.12.94.22s.9.2 1.18.33c.28.12.5.3.69.57.18.25.27.56.27.91 0 .5-.17.9-.52 1.2-.46.38-1.05.58-1.77.58a3.22 3.22 0 0 1-1.57-.4Zm11.22-4.67V7h1c.25 0 .42.05.52.14.1.1.16.21.16.36s-.06.27-.16.36c-.1.1-.27.14-.51.14h-3.02c-.25 0-.42-.05-.52-.14a.48.48 0 0 1-.15-.36c0-.15.05-.27.15-.36.1-.1.27-.14.52-.14h1V3.08h-1c-.25 0-.42-.04-.52-.13a.48.48 0 0 1-.15-.37c0-.15.05-.27.15-.36.1-.1.27-.14.52-.14h3.02c.24 0 .4.05.51.14.1.09.16.21.16.36s-.06.27-.16.37c-.1.09-.27.13-.51.13h-1.01Zm7.5.9V7h.36c.24 0 .41.05.51.14.1.1.16.21.16.36s-.05.27-.16.36c-.1.1-.27.14-.5.14H19.3c-.24 0-.42-.05-.52-.14a.48.48 0 0 1-.15-.36c0-.15.05-.26.15-.36.1-.1.26-.14.47-.14V3.08h-.16c-.24 0-.41-.04-.52-.13a.48.48 0 0 1-.15-.37c0-.15.05-.27.16-.36.1-.1.27-.14.51-.14h1.16l2.56 4.02V3.08h-.36c-.24 0-.42-.04-.52-.13a.48.48 0 0 1-.15-.37c0-.15.05-.27.15-.36.1-.1.28-.14.52-.14h1.31c.24 0 .41.05.51.14.1.09.16.21.16.36s-.05.27-.15.36c-.1.1-.26.14-.47.14V8h-.99l-2.57-4.03Zm12.08-1.64a.68.68 0 0 1 .2-.2.48.48 0 0 1 .24-.06c.14 0 .26.05.35.15.1.1.15.28.15.52v.85c0 .24-.05.4-.15.51-.09.1-.2.15-.35.15a.46.46 0 0 1-.32-.1c-.09-.08-.15-.22-.19-.43a.6.6 0 0 0-.13-.31 1.39 1.39 0 0 0-.56-.36 2.06 2.06 0 0 0-.72-.13c-.3 0-.58.07-.83.2a1.86 1.86 0 0 0-.95 1.68v.65c0 .48.18.88.52 1.2.36.32.84.49 1.46.49.37 0 .69-.05.95-.16.15-.05.3-.17.47-.34.1-.1.19-.17.25-.2a.4.4 0 0 1 .2-.05c.13 0 .25.05.35.15.1.1.15.22.15.36 0 .13-.07.28-.2.44-.2.22-.46.4-.77.53-.42.18-.88.27-1.4.27-.58 0-1.12-.13-1.6-.37-.38-.2-.7-.5-.97-.92-.27-.43-.41-.89-.41-1.38V4.8c0-.52.12-1 .36-1.46a2.73 2.73 0 0 1 2.38-1.41 3.07 3.07 0 0 1 1.52.4ZM39 5.53V7h2.55v-.54c0-.24.05-.41.14-.52.1-.1.21-.15.36-.15s.27.05.36.15c.1.1.14.28.14.52V8h-4.71c-.24 0-.41-.05-.52-.14a.48.48 0 0 1-.15-.36c0-.15.05-.27.16-.36.1-.1.27-.14.5-.14H38V3.08h-.16c-.24 0-.41-.04-.52-.13a.48.48 0 0 1-.15-.37c0-.15.05-.27.15-.36.1-.1.28-.14.52-.14h4.5v1.53c0 .23-.05.4-.15.5-.09.1-.2.16-.36.16a.48.48 0 0 1-.36-.15c-.1-.1-.14-.27-.14-.51v-.53H39v1.45h.88c0-.26.02-.43.07-.5.1-.16.24-.24.43-.24.14 0 .26.05.35.15.1.1.15.27.15.52V5.6c0 .22-.03.36-.08.44a.48.48 0 0 1-.42.23.48.48 0 0 1-.43-.24c-.05-.08-.08-.25-.08-.51H39Zm20.05-4V7h1c.25 0 .42.05.52.14.1.1.16.21.16.36s-.06.27-.16.36c-.1.1-.27.14-.51.14h-3.03c-.24 0-.4-.05-.51-.14a.48.48 0 0 1-.15-.36c0-.15.05-.27.15-.36.1-.1.27-.14.51-.14h1.01V2.82l-.89.24c-.14.04-.25.06-.32.06a.44.44 0 0 1-.33-.15.53.53 0 0 1-.14-.38c0-.13.03-.23.1-.3.07-.09.21-.15.43-.21l2.16-.56ZM69.2 5.36c-.25.22-.48.37-.69.46-.2.09-.43.13-.66.13-.53 0-1-.21-1.4-.64-.4-.43-.6-.96-.6-1.6 0-.5.13-.95.4-1.36.38-.56.92-.84 1.6-.84a2 2 0 0 1 1.3.44c.36.3.63.72.8 1.28.17.55.26 1.13.26 1.73 0 1.02-.4 1.85-1.19 2.46a3.2 3.2 0 0 1-2 .72c-.41 0-.72-.08-.94-.25a.5.5 0 0 1-.23-.42c0-.15.05-.26.14-.36.1-.1.22-.15.36-.15a.6.6 0 0 1 .26.08c.13.06.26.1.4.1.5 0 .97-.18 1.4-.52.43-.34.69-.76.79-1.26Zm-.14-1.57c-.1-.47-.27-.8-.48-.99-.2-.2-.45-.29-.72-.29-.28 0-.52.11-.72.33-.2.21-.3.5-.3.86 0 .37.1.68.3.9.2.24.43.35.69.35.45 0 .86-.39 1.23-1.16Zm9.4 1.57c-.25.22-.48.37-.7.46-.2.09-.42.13-.65.13-.54 0-1-.21-1.41-.64-.4-.43-.6-.96-.6-1.6 0-.5.14-.95.41-1.36.38-.56.91-.84 1.6-.84a2 2 0 0 1 1.29.44c.37.3.64.72.8 1.28.18.55.27 1.13.27 1.73 0 1.02-.4 1.85-1.19 2.46a3.2 3.2 0 0 1-2.01.72c-.4 0-.72-.08-.94-.25a.5.5 0 0 1-.22-.42c0-.15.04-.26.14-.36.1-.1.21-.15.35-.15a.6.6 0 0 1 .27.08c.13.06.26.1.4.1.5 0 .97-.18 1.4-.52.42-.34.69-.76.79-1.26ZM78.3 3.8c-.1-.47-.26-.8-.47-.99-.21-.2-.45-.29-.72-.29-.29 0-.53.11-.72.33-.2.21-.3.5-.3.86 0 .37.1.68.3.9.2.24.43.35.68.35.46 0 .87-.39 1.23-1.16Zm7.05.78c.24-.2.47-.35.7-.44a1.84 1.84 0 0 1 2.08.48c.38.42.58.95.58 1.57a1.9 1.9 0 0 1-.55 1.42c-.37.36-.86.54-1.5.54-.52 0-.95-.13-1.29-.37-.34-.24-.6-.62-.76-1.13a5.26 5.26 0 0 1-.26-1.7c0-.75.17-1.37.51-1.86.34-.5.74-.89 1.2-1.16.47-.27.96-.4 1.47-.4.4 0 .72.07.95.23.14.1.22.24.22.41 0 .15-.05.27-.15.37-.1.1-.21.15-.35.15a.8.8 0 0 1-.34-.12.55.55 0 0 0-.25-.07 2.44 2.44 0 0 0-1.88 1.1c-.17.27-.3.6-.38.98Zm.15 1.55c.1.4.24.66.42.8s.43.22.76.22.58-.1.76-.26c.18-.18.27-.41.27-.7 0-.34-.1-.63-.31-.85a.9.9 0 0 0-.68-.34c-.2 0-.42.1-.65.3-.23.2-.42.48-.57.83Z"/></defs></svg>
